HIERARCHY
ROOT Hips
{
	OFFSET 0.000000 0.000000 0.000000
	CHANNELS 6 Xposition Yposition Zposition Zrotation Yrotation Xrotation 
	JOINT LHipJoint
	{
		OFFSET 0.000000 0.000000 0.000000
		CHANNELS 3 Zrotation Yrotation Xrotation
		JOINT LeftUpLeg
		{
			OFFSET 1.363060 -1.794630 0.839290
			CHANNELS 3 Zrotation Yrotation Xrotation
			JOINT LeftLeg
			{
				OFFSET 2.448110 -6.726130 0.000000
				CHANNELS 3 Zrotation Yrotation Xrotation
				JOINT LeftFoot
				{
					OFFSET 2.562200 -7.039590 0.000000
					CHANNELS 3 Zrotation Yrotation Xrotation
					JOINT LeftToeBase
					{
						OFFSET 0.157640 -0.433110 2.322550
						CHANNELS 3 Zrotation Yrotation Xrotation
						End Site
						{
							OFFSET 0.000000 0.000000 0.000000
						}
					}
				}
			}
		}
	}
	JOINT RHipJoint
	{
		OFFSET 0.000000 0.000000 0.000000
		CHANNELS 3 Zrotation Yrotation Xrotation
		JOINT RightUpLeg
		{
			OFFSET -1.305520 -1.794630 0.839290
			CHANNELS 3 Zrotation Yrotation Xrotation
			JOINT RightLeg
			{
				OFFSET -2.542530 -6.985550 0.000000
				CHANNELS 3 Zrotation Yrotation Xrotation
				JOINT RightFoot
				{
					OFFSET -2.568260 -7.056230 0.000000
					CHANNELS 3 Zrotation Yrotation Xrotation
					JOINT RightToeBase
					{
						OFFSET -0.164730 -0.452590 2.363150
						CHANNELS 3 Zrotation Yrotation Xrotation
						End Site
						{
							OFFSET 0.000000 0.000000 0.000000
						}
					}
				}
			}
		}
	}
	JOINT LowerBack
	{
		OFFSET 0.000000 0.000000 0.000000
		CHANNELS 3 Zrotation Yrotation Xrotation
		JOINT Spine
		{
			OFFSET 0.028270 2.035590 -0.193380
			CHANNELS 3 Zrotation Yrotation Xrotation
			JOINT Spine1
			{
				OFFSET 0.056720 2.048850 -0.042750
				CHANNELS 3 Zrotation Yrotation Xrotation
				JOINT Neck
				{
					OFFSET 0.000000 0.000000 0.000000
					CHANNELS 3 Zrotation Yrotation Xrotation
					JOINT Neck1
					{
						OFFSET -0.054170 1.746240 0.172020
						CHANNELS 3 Zrotation Yrotation Xrotation
						JOINT Head
						{
							OFFSET 0.104070 1.761360 -0.123970
							CHANNELS 3 Zrotation Yrotation Xrotation
							End Site
							{
								OFFSET 0.000000 0.000000 0.000000
							}
						}
					}
				}
				JOINT LeftShoulder
				{
					OFFSET 0.000000 0.000000 0.000000
					CHANNELS 3 Zrotation Yrotation Xrotation
					JOINT LeftArm
					{
						OFFSET 3.362410 1.200890 -0.311210
						CHANNELS 3 Zrotation Yrotation Xrotation
						JOINT LeftForeArm
						{
							OFFSET 4.983000 -0.000000 -0.000000
							CHANNELS 3 Zrotation Yrotation Xrotation
							JOINT LeftHand
							{
								OFFSET 3.483560 -0.000000 -0.000000
								CHANNELS 3 Zrotation Yrotation Xrotation
								JOINT LeftFingerBase
								{
									OFFSET 0.000000 0.000000 0.000000
									CHANNELS 3 Zrotation Yrotation Xrotation
									JOINT LeftHandIndex1
									{
										OFFSET 0.715260 -0.000000 -0.000000
										CHANNELS 3 Zrotation Yrotation Xrotation
										End Site
										{
											OFFSET 0.000000 0.000000 0.000000
										}
									}
								}
								JOINT LThumb
								{
									OFFSET 0.000000 0.000000 0.000000
									CHANNELS 3 Zrotation Yrotation Xrotation
									End Site
									{
										OFFSET 0.000000 0.000000 0.000000
									}
								}
							}
						}
					}
				}
				JOINT RightShoulder
				{
					OFFSET 0.000000 0.000000 0.000000
					CHANNELS 3 Zrotation Yrotation Xrotation
					JOINT RightArm
					{
						OFFSET -3.136600 1.374050 -0.404650
						CHANNELS 3 Zrotation Yrotation Xrotation
						JOINT RightForeArm
						{
							OFFSET -5.241900 -0.000000 -0.000000
							CHANNELS 3 Zrotation Yrotation Xrotation
							JOINT RightHand
							{
								OFFSET -3.444170 -0.000000 -0.000000
								CHANNELS 3 Zrotation Yrotation Xrotation
								JOINT RightFingerBase
								{
									OFFSET 0.000000 0.000000 0.000000
									CHANNELS 3 Zrotation Yrotation Xrotation
									JOINT RightHandIndex1
									{
										OFFSET -0.622530 -0.000000 -0.000000
										CHANNELS 3 Zrotation Yrotation Xrotation
										End Site
										{
											OFFSET 0.000000 0.000000 0.000000
										}
									}
								}
								JOINT RThumb
								{
									OFFSET 0.000000 0.000000 0.000000
									CHANNELS 3 Zrotation Yrotation Xrotation
									End Site
									{
										OFFSET 0.000000 0.000000 0.000000
									}
								}
							}
						}
					}
				}
			}
		}
	}
}
MOTION
Frames: 4
Frame Time: 0.008333
0.587424 17.669719 -14.940573 -2.288059 -0.872164 7.501566 -1.763282 -0.697539 0.349615 -13.704873 3.053289 -21.805848 0.745818 9.206885 25.381898 -0.952789 5.933188 -2.442813 0.021000 -0.936200 -2.573200 -0.203239 0.319275 -0.206846 18.610784 4.402606 -19.177095 -1.286080 -9.672997 27.165114 -0.098091 -1.610560 -5.816890 -0.176300 -2.704500 7.457100 1.828921 -0.699720 2.559071 1.508413 -0.798486 -1.701357 1.073677 -0.760908 6.974355 -3.344363 -0.666336 -8.470928 2.582472 -0.165977 30.004219 0.338900 0.360900 11.466400 9.223250 5.469458 0.432836 -96.385180 -7.555276 30.795960 7.428523 -16.986095 -1.154212 -0.273483 -0.730323 -7.285322 26.054224 -4.344256 -1.769100 -7.125000 0.000000 0.000000 -0.149900 26.001700 0.069000 -8.185538 -4.477422 0.111855 93.138119 4.294131 13.022206 -10.095697 22.147646 -2.366628 0.858179 1.057147 29.137842 -20.649031 -23.293328 9.057900 7.125000 0.000000 0.000000 9.351300 -55.932900 -2.523900
0.588839 17.665778 -14.959800 -2.282272 -0.900104 7.585903 -1.749556 -0.716651 0.324893 -13.727165 3.047292 -22.038103 0.769770 9.258764 25.527548 -0.945979 5.905472 -2.447614 0.022231 -0.962314 -2.645128 -0.213200 0.334378 -0.216206 18.584411 4.512595 -19.386324 -1.307935 -9.721324 27.294720 -0.093380 -1.637119 -5.825091 -0.175871 -2.701640 7.449249 1.817026 -0.697629 2.677860 1.507496 -0.790658 -1.693134 1.080787 -0.757667 6.958516 -3.344181 -0.660541 -8.507535 2.577498 -0.154153 29.913588 0.335542 0.364579 11.441208 9.220094 5.469940 0.432207 -96.314277 -7.469484 30.747425 7.434277 -17.001414 -1.155190 -0.275898 -0.730537 -7.358194 26.130043 -4.446530 -1.825833 -7.125000 0.000000 0.000000 -0.092366 25.885211 0.042758 -8.182228 -4.477372 0.110818 93.078775 4.238924 12.919824 -10.095125 22.147779 -2.366687 0.858866 1.059000 29.162153 -20.641540 -23.340939 9.070918 7.125000 0.000000 0.000000 9.382006 -55.981968 -2.543511
0.590036 17.661719 -14.980109 -2.278299 -0.933422 7.677354 -1.734929 -0.736659 0.298808 -13.746646 3.041698 -22.283913 0.794606 9.312108 25.677186 -0.938537 5.875214 -2.451029 0.023320 -0.986005 -2.710289 -0.223475 0.350210 -0.225900 18.559409 4.637458 -19.601767 -1.329400 -9.769289 27.422060 -0.087302 -1.671476 -5.841172 -0.176089 -2.703079 7.453116 1.804370 -0.693051 2.806038 1.506498 -0.779219 -1.684641 1.089248 -0.752651 6.939138 -3.346811 -0.653398 -8.542254 2.578061 -0.141928 29.815361 0.334938 0.368579 11.412342 9.216819 5.470399 0.431834 -96.236626 -7.371588 30.701926 7.440277 -17.017903 -1.157008 -0.276782 -0.731202 -7.454401 26.166439 -4.502964 -1.856805 -7.125000 0.000000 0.000000 -0.064479 25.821259 0.029971 -8.178755 -4.477809 0.109803 93.018534 4.170904 12.817186 -10.094777 22.148419 -2.366659 0.859421 1.061457 29.202306 -20.623100 -23.409048 9.085471 7.125000 0.000000 0.000000 9.434620 -56.050126 -2.573658
0.591175 17.657338 -15.001794 -2.271192 -0.970739 7.779408 -1.719406 -0.758135 0.270753 -13.769043 3.028825 -22.545997 0.820490 9.367805 25.832885 -0.932454 5.850470 -2.454049 0.024479 -1.009336 -2.774525 -0.234463 0.367177 -0.236156 18.529265 4.772728 -19.834517 -1.352161 -9.820127 27.556725 -0.081251 -1.707580 -5.866481 -0.176906 -2.709104 7.469945 1.786753 -0.686438 2.943559 1.505115 -0.764764 -1.676107 1.099986 -0.746453 6.916059 -3.349006 -0.646338 -8.576762 2.580021 -0.130638 29.706875 0.334254 0.372352 11.379508 9.213619 5.470899 0.431523 -96.154675 -7.261982 30.660298 7.448849 -17.040111 -1.160440 -0.275697 -0.732592 -7.586336 26.166927 -4.498931 -1.854531 -7.125000 0.000000 0.000000 -0.063464 25.826504 0.029459 -8.174982 -4.478585 0.108754 92.957595 4.092791 12.706759 -10.092521 22.146212 -2.365805 0.860200 1.064126 29.250134 -20.605738 -23.484753 9.103059 7.125000 0.000000 0.000000 9.489962 -56.126552 -2.606492
